# xmcd
#
# Track frame offsets:
#	150
#	14315
#	29571
#	47317
#	73584
#	105320
#	123527
#	134044
#	164825
#	202420
#
# Disc length: 4000 seconds
#
# Revision: 2
# Processed by: cddbd v1.5.2PL0 Copyright (c) Steve Scherf et al.
# Submitted via: EZCDAudioConverter 2.1.7.1
#
DISCID=950f9e0a
DTITLE=V/A - Real World Notes V13
DYEAR=1900
DGENRE=
TTITLE0=Pina - I Loved The Way
TTITLE1=Estrella Morente - At The Top Of The Cerro De Palomares (Tangos)
TTITLE2=Sevara Nazarkhan - Moghulchai Navo
TTITLE3=Zawose and Brook - Chilumi Kigumu - Tricky Voices
TTITLE4=Peter Gabriel - Come Talk To Me
TTITLE5=Afro Celt Sound System - Persistence Of Memory [Rae and Christian 7'' Re
TTITLE5=mix]
TTITLE6=Joseph Arthur - In The Night
TTITLE7=Nusrat Fateh Ali Khan and Party - Tasbeh Dei Ik Ik Dhaneh (Each And Ever
TTITLE7=y Rosary Bead) [Edit]
TTITLE8=Dhol Foundation - Big Drum Small World
TTITLE9=Various Artist - Data
EXTD=
EXTT0=
EXTT1=
EXTT2=
EXTT3=
EXTT4=
EXTT5=
EXTT6=
EXTT7=
EXTT8=
EXTT9=
PLAYORDER=
